<svg width="300" height="49" viewBox="0 0 300 49" fill="none" xmlns="http://www.w3.org/2000/svg">
<rect x="15.5461" width="16.2692" height="45" rx="8.13461" fill="white"/>
<rect x="47" y="14.8848" width="15.2308" height="47" rx="7.61539" transform="rotate(90 47 14.8848)" fill="white"/>
<path d="M14.617 14.5138C18.8033 15.085 21.5187 18.0079 23.43 21.1514C24.4878 22.9209 25.3798 24.8061 26.7659 26.3148C27.7946 27.4408 28.9997 28.386 30.3228 29.2237C31.206 29.7781 32.1414 30.2709 33.3137 30.4304C32.6729 30.5197 32.0487 30.4889 31.4656 30.3849C29.7298 30.0424 28.243 29.2969 26.8858 28.3977C25.5355 27.4942 24.4337 26.2722 23.578 24.9091C22.7415 23.5866 22.0372 22.1505 21.217 20.841C19.5779 18.2149 17.5884 15.8913 14.617 14.5138Z" fill="#2260FF"/>
<path d="M24.556 20.9656C24.556 20.9656 19.5904 16.7819 21.9024 11.1668C23.8082 6.53836 26.5229 5.64901 26.387 1.96973C28.3538 3.63313 31.9242 7.96116 30.2747 13.0841C28.6611 18.0962 24.556 20.9656 24.556 20.9656Z" fill="#2260FF"/>
<path d="M26.387 1.96973C28.7704 4.75381 28.8054 8.15015 27.6322 11.5248C26.5878 14.6962 24.7398 17.4818 24.3111 20.7981C24.26 20.5105 24.1596 20.132 24.1528 19.8354C24.128 19.3201 24.1693 18.7865 24.2456 18.2733C24.6194 15.8318 25.7509 13.4973 26.521 11.1993C27.6835 7.87915 27.8123 5.15688 26.387 1.96973Z" fill="white"/>
<path d="M23.0206 24.7268C23.0206 24.7268 17.9915 17.2127 12.288 19.6066C7.58663 21.5798 6.83062 23.2498 1.89334 22.0902C3.68108 23.8807 7.67678 27.8882 13.7275 27.2807C19.1169 26.7394 23.0206 24.7268 23.0206 24.7268Z" fill="#2260FF"/>
<path d="M1.81637 22.16C4.3708 23.5254 7.39004 23.7918 10.1774 23.1518C10.6671 23.0632 11.2651 22.8647 11.7442 22.7331C15.4598 21.4795 20.1651 21.9637 23.0169 24.7323C19.7887 23.2567 15.9521 23.0573 12.5805 24.0949C12.4176 24.1437 12.0842 24.2373 11.9191 24.2814C11.7897 24.3162 11.1587 24.4877 11.0425 24.5156C10.6316 24.5857 10.1936 24.6733 9.78062 24.7249C9.53089 24.737 8.92613 24.7999 8.68186 24.8005C8.4998 24.7965 8.12824 24.7898 7.9457 24.7854C5.68625 24.6806 3.30225 23.8389 1.81637 22.16Z" fill="white"/>
<path d="M85.6646 7.32V39H80.6246V17.424L80.8646 13.368L79.9046 17.928L72.9686 36.984H68.0006L61.0886 17.928L60.1286 13.368L60.3686 17.424V39H55.3286V7.32H62.2166L70.1366 31.032L70.4966 32.928L70.8326 31.032L78.8006 7.32H85.6646ZM95.5368 30.36C95.5688 31.4 95.8168 32.336 96.2808 33.168C96.7448 34 97.4248 34.656 98.3208 35.136C99.2328 35.6 100.345 35.832 101.657 35.832C102.793 35.832 103.769 35.68 104.585 35.376C105.417 35.056 106.105 34.68 106.649 34.248C107.193 33.8 107.593 33.384 107.849 33L110.129 36.096C109.633 36.768 109.009 37.368 108.257 37.896C107.505 38.424 106.569 38.832 105.449 39.12C104.345 39.424 102.977 39.576 101.345 39.576C99.2008 39.576 97.3368 39.136 95.7528 38.256C94.1688 37.376 92.9368 36.136 92.0568 34.536C91.1928 32.936 90.7608 31.064 90.7608 28.92C90.7608 27 91.1608 25.272 91.9608 23.736C92.7608 22.184 93.9208 20.96 95.4408 20.064C96.9768 19.168 98.8168 18.72 100.961 18.72C102.961 18.72 104.697 19.12 106.169 19.92C107.641 20.72 108.777 21.872 109.577 23.376C110.393 24.864 110.801 26.664 110.801 28.776C110.801 28.904 110.793 29.168 110.777 29.568C110.777 29.968 110.761 30.232 110.729 30.36H95.5368ZM106.001 26.616C105.985 26.104 105.809 25.52 105.473 24.864C105.153 24.208 104.633 23.64 103.913 23.16C103.193 22.664 102.233 22.416 101.033 22.416C99.8008 22.416 98.8008 22.656 98.0328 23.136C97.2648 23.6 96.6968 24.16 96.3288 24.816C95.9608 25.456 95.7448 26.056 95.6808 26.616H106.001ZM123.781 39.576C121.925 39.576 120.285 39.136 118.861 38.256C117.437 37.376 116.317 36.152 115.501 34.584C114.701 33.016 114.301 31.208 114.301 29.16C114.301 27.112 114.701 25.304 115.501 23.736C116.317 22.168 117.437 20.944 118.861 20.064C120.285 19.168 121.925 18.72 123.781 18.72C125.157 18.72 126.381 18.96 127.453 19.44C128.525 19.904 129.381 20.448 130.021 21.072C130.661 21.696 131.037 22.248 131.149 22.728V5.976H136.285V39H131.221V35.352C130.997 35.912 130.541 36.52 129.853 37.176C129.165 37.832 128.293 38.4 127.237 38.88C126.197 39.344 125.045 39.576 123.781 39.576ZM125.101 35.424C126.221 35.424 127.237 35.16 128.149 34.632C129.061 34.104 129.789 33.376 130.333 32.448C130.877 31.504 131.149 30.408 131.149 29.16C131.149 27.912 130.877 26.824 130.333 25.896C129.789 24.952 129.061 24.216 128.149 23.688C127.237 23.144 126.221 22.872 125.101 22.872C124.077 22.872 123.125 23.136 122.245 23.664C121.381 24.176 120.685 24.904 120.157 25.848C119.629 26.792 119.365 27.896 119.365 29.16C119.365 30.424 119.629 31.528 120.157 32.472C120.685 33.416 121.381 34.144 122.245 34.656C123.125 35.168 124.077 35.424 125.101 35.424ZM141.19 39V19.296H146.302V39H141.19ZM143.806 13.392C142.942 13.392 142.198 13.08 141.574 12.456C140.966 11.832 140.662 11.088 140.662 10.224C140.662 9.36 140.966 8.616 141.574 7.992C142.198 7.352 142.942 7.032 143.806 7.032C144.382 7.032 144.91 7.184 145.39 7.488C145.886 7.776 146.278 8.16 146.566 8.64C146.87 9.104 147.022 9.632 147.022 10.224C147.022 11.088 146.71 11.832 146.086 12.456C145.462 13.08 144.702 13.392 143.806 13.392ZM162.754 6.744C164.61 6.744 166.218 6.96 167.578 7.392C168.954 7.808 170.042 8.256 170.842 8.736C171.642 9.2 172.122 9.504 172.282 9.648L169.762 13.752C169.522 13.544 169.09 13.256 168.466 12.888C167.858 12.504 167.106 12.16 166.21 11.856C165.33 11.552 164.346 11.4 163.258 11.4C161.626 11.4 160.33 11.72 159.37 12.36C158.41 12.984 157.93 13.896 157.93 15.096C157.93 15.896 158.186 16.6 158.698 17.208C159.21 17.816 159.938 18.384 160.882 18.912C161.842 19.44 162.986 19.976 164.314 20.52C165.434 20.984 166.522 21.512 167.578 22.104C168.65 22.696 169.61 23.392 170.458 24.192C171.306 24.992 171.978 25.92 172.474 26.976C172.986 28.032 173.242 29.248 173.242 30.624C173.242 32.064 172.946 33.344 172.354 34.464C171.762 35.568 170.946 36.504 169.906 37.272C168.866 38.024 167.666 38.6 166.306 39C164.962 39.384 163.522 39.576 161.986 39.576C159.97 39.576 158.154 39.336 156.538 38.856C154.938 38.36 153.642 37.848 152.65 37.32C151.658 36.776 151.082 36.424 150.922 36.264L153.586 31.968C153.778 32.128 154.13 32.368 154.642 32.688C155.17 32.992 155.818 33.32 156.586 33.672C157.354 34.008 158.202 34.296 159.13 34.536C160.074 34.76 161.05 34.872 162.058 34.872C163.994 34.872 165.458 34.456 166.45 33.624C167.442 32.776 167.938 31.688 167.938 30.36C167.938 29.352 167.618 28.48 166.978 27.744C166.354 26.992 165.49 26.312 164.386 25.704C163.298 25.096 162.058 24.496 160.666 23.904C159.242 23.28 157.922 22.576 156.706 21.792C155.506 21.008 154.538 20.056 153.802 18.936C153.066 17.8 152.698 16.424 152.698 14.808C152.698 13.192 153.154 11.784 154.066 10.584C154.994 9.368 156.218 8.424 157.738 7.752C159.258 7.08 160.93 6.744 162.754 6.744ZM182.942 28.968C182.942 30.888 183.334 32.416 184.118 33.552C184.918 34.688 186.174 35.256 187.886 35.256C189.614 35.256 190.87 34.688 191.654 33.552C192.438 32.416 192.83 30.888 192.83 28.968V19.296H197.918V29.616C197.918 31.6 197.526 33.344 196.742 34.848C195.958 36.336 194.822 37.496 193.334 38.328C191.846 39.16 190.03 39.576 187.886 39.576C185.758 39.576 183.95 39.16 182.462 38.328C180.974 37.496 179.838 36.336 179.054 34.848C178.27 33.344 177.878 31.6 177.878 29.616V19.296H182.942V28.968ZM208.355 48.984H203.267V19.296H208.427V22.728C208.603 22.248 209.011 21.696 209.651 21.072C210.307 20.448 211.171 19.904 212.243 19.44C213.315 18.96 214.539 18.72 215.915 18.72C217.771 18.72 219.395 19.168 220.787 20.064C222.195 20.944 223.291 22.168 224.075 23.736C224.875 25.304 225.275 27.112 225.275 29.16C225.275 31.208 224.867 33.016 224.051 34.584C223.235 36.152 222.107 37.376 220.667 38.256C219.243 39.136 217.603 39.576 215.747 39.576C214.291 39.576 213.027 39.312 211.955 38.784C210.883 38.24 210.043 37.632 209.435 36.96C208.827 36.288 208.467 35.752 208.355 35.352V48.984ZM220.211 29.16C220.211 27.896 219.947 26.792 219.419 25.848C218.891 24.904 218.187 24.176 217.307 23.664C216.443 23.136 215.491 22.872 214.451 22.872C213.331 22.872 212.315 23.144 211.403 23.688C210.491 24.216 209.763 24.952 209.219 25.896C208.691 26.824 208.427 27.912 208.427 29.16C208.427 30.408 208.691 31.504 209.219 32.448C209.763 33.376 210.491 34.104 211.403 34.632C212.315 35.16 213.331 35.424 214.451 35.424C215.491 35.424 216.443 35.168 217.307 34.656C218.187 34.144 218.891 33.416 219.419 32.472C219.947 31.528 220.211 30.424 220.211 29.16ZM234.558 48.984H229.47V19.296H234.63V22.728C234.806 22.248 235.214 21.696 235.854 21.072C236.51 20.448 237.374 19.904 238.446 19.44C239.518 18.96 240.742 18.72 242.118 18.72C243.974 18.72 245.598 19.168 246.99 20.064C248.398 20.944 249.494 22.168 250.278 23.736C251.078 25.304 251.478 27.112 251.478 29.16C251.478 31.208 251.07 33.016 250.254 34.584C249.438 36.152 248.31 37.376 246.87 38.256C245.446 39.136 243.806 39.576 241.95 39.576C240.494 39.576 239.23 39.312 238.158 38.784C237.086 38.24 236.246 37.632 235.638 36.96C235.03 36.288 234.67 35.752 234.558 35.352V48.984ZM246.414 29.16C246.414 27.896 246.15 26.792 245.622 25.848C245.094 24.904 244.39 24.176 243.51 23.664C242.646 23.136 241.694 22.872 240.654 22.872C239.534 22.872 238.518 23.144 237.606 23.688C236.694 24.216 235.966 24.952 235.422 25.896C234.894 26.824 234.63 27.912 234.63 29.16C234.63 30.408 234.894 31.504 235.422 32.448C235.966 33.376 236.694 34.104 237.606 34.632C238.518 35.16 239.534 35.424 240.654 35.424C241.694 35.424 242.646 35.168 243.51 34.656C244.39 34.144 245.094 33.416 245.622 32.472C246.15 31.528 246.414 30.424 246.414 29.16ZM260.881 39H255.721V5.976H260.881V39ZM275.19 34.416L281.43 19.296H286.542L273.15 48.984H267.966L272.478 39L264.318 19.296H269.502L275.19 34.416Z" fill="white"/>
</svg>
